<!-- Generator: Adobe Illustrator 19.0.0, SVG Export Plug-In  -->
<svg version="1.1"
	 xmlns="http://www.w3.org/2000/svg" xmlns:xlink="http://www.w3.org/1999/xlink" xmlns:a="http://ns.adobe.com/AdobeSVGViewerExtensions/3.0/"
	 x="0px" y="0px" width="31.1px" height="25.4px" viewBox="0 0 31.1 25.4" style="enable-background:new 0 0 31.1 25.4;"
	 xml:space="preserve">
<style type="text/css">
	.st0{fill:#FFFFFF;}
</style>
<defs>
</defs>
<g id="XMLID_15_">
	<path id="XMLID_16_" class="st0" d="M0,24.7c0.9-0.1,1.5-0.2,1.9-0.5c0.5-0.4,1-1.2,1.3-2.4L8,4.7C8.1,4,8.3,3.5,8.3,3.2
		c0.1-0.3,0.1-0.6,0.1-0.8c0-0.6-0.2-1.1-0.7-1.3S6.5,0.7,5.4,0.6V0H16v0.6c-1.1,0.1-1.8,0.3-2.3,0.5c-0.8,0.4-1.3,1.2-1.7,2.4
		L10,11.1h12L24,4.2c0.1-0.5,0.2-0.9,0.2-1.2c0-0.3,0.1-0.5,0.1-0.8c0-0.6-0.3-1.1-0.9-1.3c-0.4-0.2-1-0.3-1.8-0.3V0h9.6v0.6
		c-1,0.1-1.7,0.3-2.1,0.6c-0.4,0.3-0.7,1-1.1,2.2l-4.7,17.2l-0.4,1.5c0,0.1,0,0.3-0.1,0.4c0,0.1,0,0.3,0,0.4c0,0.7,0.2,1.2,0.7,1.4
		c0.4,0.2,1.2,0.3,2.4,0.4v0.6H15.1v-0.6c1-0.1,1.8-0.2,2.2-0.5c0.8-0.4,1.3-1.2,1.7-2.4l2.5-9.2h-12l-2.2,8L7,22.2
		c0,0.1,0,0.3-0.1,0.4c0,0.1,0,0.3,0,0.4c0,0.7,0.2,1.2,0.6,1.4s1.1,0.3,2.2,0.4v0.6H0V24.7z"/>
</g>
</svg>
