<!-- Generator: Adobe Illustrator 19.0.0, SVG Export Plug-In  -->
<svg version="1.1"
	 xmlns="http://www.w3.org/2000/svg" xmlns:xlink="http://www.w3.org/1999/xlink" xmlns:a="http://ns.adobe.com/AdobeSVGViewerExtensions/3.0/"
	 x="0px" y="0px" width="27.8px" height="27px" viewBox="0 0 27.8 27" style="enable-background:new 0 0 27.8 27;"
	 xml:space="preserve">
<style type="text/css">
	.st0{fill:#FFFFFF;}
</style>
<defs>
</defs>
<g id="XMLID_16_">
	<path id="XMLID_17_" class="st0" d="M7,9.4c0.1,0,0.1,0.1,0.1,0.2L3.2,23.1C3.1,23.8,3,24.3,3,24.4c0,0.2,0,0.4,0.1,0.5
		c0.1,0.2,0.2,0.2,0.5,0.2c0.4,0,1-0.4,1.7-1.1c0.4-0.4,0.9-1.1,1.5-1.9l0.5,0.4l-0.2,0.3c-1,1.3-1.7,2.3-2.4,2.9
		c-1,0.9-1.9,1.4-2.8,1.4c-0.5,0-1-0.2-1.4-0.7c-0.4-0.5-0.5-1-0.5-1.6c0-0.4,0-0.7,0.1-1s0.1-0.7,0.3-1.2l2.7-9.8
		c0-0.2,0.1-0.3,0.1-0.4c0-0.1,0-0.3,0-0.4c0-0.5-0.2-0.7-0.5-0.8s-1-0.2-2-0.2v-0.6c1-0.1,1.8-0.2,2.3-0.3C3.4,10,3.9,9.9,4.3,9.9
		C5,9.8,5.5,9.6,6.1,9.5C6.6,9.4,6.9,9.3,7,9.4z M5.2,4.6C4.8,4.2,4.6,3.7,4.6,3.2c0-0.6,0.2-1.1,0.6-1.5S6,1.1,6.5,1.1
		c0.5,0,1,0.2,1.3,0.6c0.4,0.4,0.6,0.9,0.6,1.5c0,0.6-0.2,1.1-0.6,1.5C7.5,5,7,5.2,6.5,5.2C6,5.2,5.6,5,5.2,4.6z"/>
</g>
<path id="XMLID_15_" class="st0" d="M25.8,25.3c-0.6,0.7-1.3,1.2-2.3,1.6c-0.3,0.1-0.7,0.2-1.1,0.1c-0.4,0-0.7-0.2-1-0.4
	c-0.3-0.2-0.5-0.6-0.5-1.1c-0.1-0.5,0-1.1,0.2-1.9l2.9-10.3c0.1-0.3,0.1-0.6,0.2-1c0.1-0.4-0.1-0.7-0.4-1c-0.2-0.1-0.4-0.2-0.7-0.2
	c-0.3,0-0.6,0.1-0.9,0.3c-0.8,0.5-1.5,1.1-2.4,2c-0.8,0.9-1.6,1.9-2.4,3.1c-0.8,1.1-1.4,2.3-2,3.6c-0.6,1.3-1.1,2.5-1.4,3.6
	l-0.8,2.8h-2.9l5.4-19.8h-4l0.1-1.6h4.3l0.4-1.6c0.1-0.5,0.2-0.9,0.2-1.2c0-0.3-0.1-0.5-0.3-0.6c-0.2-0.1-0.4-0.2-0.8-0.2
	c-0.3,0-0.7,0-1.2,0V1l5.6-1c0,0.6-0.1,1.2-0.2,1.9L19,5.2h5.6v1.6h-6l-3,10.9c1.2-1.9,2.4-3.6,3.7-5.1c1.3-1.4,2.7-2.5,4.2-3.1
	c0.4-0.2,0.8-0.3,1.1-0.3c0.3,0,0.6,0.1,0.9,0.2c0.2,0.1,0.5,0.3,0.6,0.4c0.2,0.2,0.3,0.4,0.4,0.5c0.2,0.3,0.3,0.8,0.4,1.3
	c0.1,0.5,0,1-0.1,1.4l-2.6,9.4c-0.1,0.3-0.2,0.6-0.3,1c-0.1,0.4-0.2,0.7-0.2,1c0,0.3,0.1,0.5,0.2,0.7c0.1,0.2,0.4,0.2,0.9,0
	c0.3-0.1,0.5-0.3,0.8-0.5c0.2-0.2,0.5-0.5,0.7-0.8c0.2-0.3,0.4-0.6,0.5-0.8c0.2-0.3,0.3-0.4,0.4-0.5c0.3-0.3,0.5-0.3,0.5,0
	c0,0.2-0.1,0.6-0.4,1C26.9,24,26.4,24.6,25.8,25.3z"/>
</svg>
