<!-- Generator: Adobe Illustrator 19.0.0, SVG Export Plug-In  -->
<svg version="1.1"
	 xmlns="http://www.w3.org/2000/svg" xmlns:xlink="http://www.w3.org/1999/xlink" xmlns:a="http://ns.adobe.com/AdobeSVGViewerExtensions/3.0/"
	 x="0px" y="0px" width="27px" height="28.3px" viewBox="0 0 27 28.3" style="enable-background:new 0 0 27 28.3;"
	 xml:space="preserve">
<style type="text/css">
	.st0{fill:#FFFFFF;}
</style>
<defs>
</defs>
<path id="XMLID_15_" class="st0" d="M13.7,18.8c-1.2,0.6-2.5,1-3.9,1.3l-2.1,8.2H5.4l2.1-8.2c-1.3-0.3-2.4-0.7-3.2-1.3
	c-1-0.6-1.7-1.4-2.3-2.6c-0.6-1.1-0.9-2.5-1-4c0-1.6,0.4-4.4,1.4-8.4c0.2-1,0.2-1.6-0.2-1.9C1.9,1.7,1.1,1.5,0,1.2l0.2-0.7
	c0.3-0.2,0.7-0.3,1.2-0.4C1.8,0,2.3,0,2.9,0C4,0,4.8,0.3,5.3,0.9c0.5,0.6,0.8,1.2,0.9,1.9c0.1,0.7,0.1,1.7,0,3C6.1,7,5.8,9,5.4,11.9
	C5,14.7,5,16.4,5.6,17.2c0.6,0.7,1.3,1.2,2.2,1.4l4.5-18.1h2.5l-4.5,18.1c1-0.2,2-0.7,2.9-1.4c0.9-0.7,1.7-1.9,2.3-3.5
	c0.8-2.3,1.5-4.3,2.1-6.1c0.9-2.5,1.6-4,2-4.6c0.4-0.6,1.1-1.3,1.9-2C22.4,0.3,23.3,0,24.4,0c0.4,0,0.9,0,1.4,0.1
	c0.4,0,0.7,0.2,1.1,0.4l-0.2,0.7c-0.9,0.2-1.8,0.4-2.5,0.6c-0.6,0.2-1,0.9-1.3,2.1c-1,4-1.9,6.8-2.8,8.4c-0.8,1.5-1.8,2.9-2.9,4
	C16.1,17.4,14.9,18.3,13.7,18.8L13.7,18.8z"/>
</svg>
