<!-- Generator: Adobe Illustrator 19.0.0, SVG Export Plug-In  -->
<svg version="1.1"
	 xmlns="http://www.w3.org/2000/svg" xmlns:xlink="http://www.w3.org/1999/xlink" xmlns:a="http://ns.adobe.com/AdobeSVGViewerExtensions/3.0/"
	 x="0px" y="0px" width="36.4px" height="33.2px" viewBox="0 0 36.4 33.2" style="enable-background:new 0 0 36.4 33.2;"
	 xml:space="preserve">
<style type="text/css">
	.st0{fill:#FFFFFF;}
</style>
<defs>
</defs>
<g id="XMLID_21_">
	<path id="XMLID_22_" class="st0" d="M4,4.9c1.6-2,3.5-3.7,5.7-4.9L10,0.6C8,2.2,6.6,3.8,5.7,5.4C4.1,8,3.4,11.6,3.4,16
		c0,3.3,0.3,6,0.9,8.1c1,3.7,3,6.6,5.8,8.4l-0.5,0.6C8,32.5,6.3,31,4.5,28.8C1.5,25.2,0,21.1,0,16.5C0,12.1,1.3,8.2,4,4.9z"/>
</g>
<g id="XMLID_18_">
	<path id="XMLID_19_" class="st0" d="M12.4,24.7c0-0.1,0-0.3,0.1-0.4L16.2,11h-2.9c0-0.3,0-0.6,0.1-0.6c0.1-0.1,0.2-0.2,0.4-0.3
		c1.3-0.5,2.3-1.1,3-1.6C17.5,8,18.4,7,19.7,5.6L20,5.2c0-0.1,0.1-0.1,0.1-0.1c0.1,0,0.1,0,0.2,0c0.1,0,0.2,0.1,0.3,0.1
		c0,0.1,0.1,0.2,0.1,0.2c0,0.1,0,0.1,0,0.2l-1.1,4.1h3.1L22.4,11h-3.3l-3.5,12.8c-0.1,0.2,0,0.4,0.1,0.7s0.3,0.3,0.5,0.3
		c0.3,0,0.8-0.3,1.4-1c0.3-0.4,0.9-1.1,1.7-2.1l0.5,0.3l-0.3,0.4c-1.1,1.6-2.1,2.8-2.9,3.4c-0.8,0.6-1.6,1-2.4,1
		c-0.6,0-1.1-0.2-1.4-0.5c-0.3-0.3-0.4-0.7-0.4-1.2C12.4,24.9,12.4,24.8,12.4,24.7z"/>
</g>
<g id="XMLID_15_">
	<path id="XMLID_16_" class="st0" d="M35.7,22.1c-0.5,1.7-1.2,3.3-2.2,4.8c-1,1.6-2.3,3.1-4,4.5c-1.1,0.9-2,1.6-2.8,1.9l-0.4-0.6
		c2-1.5,3.4-3,4.3-4.5c1.6-2.7,2.4-6.4,2.4-10.8c0-3.6-0.4-6.6-1.1-8.9c-1-3.3-2.9-5.8-5.6-7.7L26.9,0c2,1.1,3.9,2.8,5.6,5.1
		c2.6,3.5,4,7.4,4,11.7C36.4,18.6,36.2,20.4,35.7,22.1z"/>
</g>
</svg>
